<svg width="29" height="28" viewBox="0 0 29 28" fill="none" xmlns="http://www.w3.org/2000/svg">
<g style="mix-blend-mode:luminosity">
<path d="M28.1368 2.81431C30.1157 7.80857 26.9482 19.7949 19.4576 24.7189C11.9687 29.6429 2.59933 27.6723 0.365883 19.3932C-1.0137 14.2799 2.67207 10.5314 10.1618 5.60819C17.6515 0.684192 26.1861 -2.10968 28.1368 2.81431Z" fill="#3E721D"/>
<path d="M16.2381 19.4502C10.8463 23.2079 3.60203 23.7072 0.971819 19.9313C-1.65922 16.1571 1.31733 9.53448 6.71083 5.7768C12.1018 2.01995 24.8553 -2.32047 27.4863 1.45374C30.1174 5.23125 21.6299 15.6926 16.2381 19.4502Z" fill="#3E721D"/>
<path d="M15.5852 19.9032C10.8265 23.2203 4.44108 22.4632 2.12002 19.1312C-0.200218 15.7992 2.51265 9.89817 7.27133 6.58272C12.0283 3.26727 24.0164 -1.07481 26.3391 2.25635C28.6593 5.58751 22.3508 15.6264 15.5852 19.9032Z" fill="#A6D388"/>
<path d="M14.2245 17.7111C10.4999 20.3066 6.00904 20.2959 4.19302 17.6888C2.37453 15.0817 3.92025 10.8653 7.64486 8.26981C11.3703 5.67349 20.7339 2.28695 22.5524 4.89401C24.3701 7.50108 17.9508 15.1156 14.2245 17.7111Z" fill="#C6E5B3"/>
<path d="M8.4326 8.25657C11.3091 6.32896 14.5345 7.02082 16.5315 9.07903C17.716 10.2999 15.8041 13.5277 12.9284 15.4553C10.0535 17.3813 6.50664 16.9126 6.11815 16.0596C4.92786 13.45 5.55854 10.1833 8.4326 8.25657Z" fill="#662113"/>
<path d="M10.0105 8.7674C11.2587 7.93006 12.8325 8.09042 13.5268 9.12366C14.2187 10.1577 13.7698 11.6753 12.5209 12.5127C11.2727 13.3475 9.69888 13.188 9.00538 12.1548C8.31187 11.1199 8.76236 9.60391 10.0105 8.7674Z" fill="#7C3225"/>
</g>
</svg>
