<svg width="30" height="30" viewBox="0 0 30 30" fill="none" xmlns="http://www.w3.org/2000/svg">
<g style="mix-blend-mode:luminosity">
<path d="M14.8786 29.7572C23.0958 29.7572 29.7572 23.0958 29.7572 14.8786C29.7572 6.66138 23.0958 0 14.8786 0C6.66138 0 0 6.66138 0 14.8786C0 23.0958 6.66138 29.7572 14.8786 29.7572Z" fill="#F4900C"/>
<path d="M29.7572 14.052H22.3336C22.489 9.50082 23.9397 6.36887 26.288 5.33481C25.9184 4.8984 25.5243 4.48334 25.1077 4.09162C22.7684 5.39598 20.8549 8.45023 20.6821 14.0512H15.7052V0H14.052V14.052H9.07513C8.9032 8.45105 6.98964 5.3968 4.65039 4.09245C4.23332 4.48347 3.8392 4.89828 3.47002 5.33481C5.81836 6.36887 7.2682 9.50082 7.4236 14.052H0V15.7052H7.4236C7.2682 20.2564 5.81836 23.3884 3.47002 24.4224C3.83786 24.8613 4.23545 25.2713 4.65039 25.6656C6.99047 24.3612 8.9032 21.307 9.07513 15.7052H14.052V29.7572H15.7052V15.7052H20.6821C20.8549 21.3062 22.7676 24.3604 25.1077 25.6656C25.5226 25.2722 25.921 24.8613 26.288 24.4224C23.9397 23.3884 22.4898 20.2564 22.3336 15.7052H29.7572V14.052Z" fill="#231F20"/>
</g>
</svg>
