<svg width="37" height="50" viewBox="0 0 37 50" fill="none" xmlns="http://www.w3.org/2000/svg">
<path d="M8.05672 49.9999C6.76587 49.9922 5.49118 49.7082 4.3161 49.1666C3.04522 48.5988 1.96244 47.6723 1.19709 46.4976C0.431741 45.323 0.0161671 43.9498 0 42.5423V7.46235C0.0161671 6.05476 0.431741 4.68164 1.19709 3.50698C1.96244 2.33232 3.04522 1.40577 4.3161 0.837995C5.7784 0.137928 7.40533 -0.131709 9.01148 0.0598093C10.6176 0.251328 12.1384 0.896299 13.4005 1.92122L34.3644 19.4612C35.1865 20.1245 35.8504 20.9672 36.3067 21.9266C36.763 22.886 37 23.9373 37 25.0023C37 26.0673 36.763 27.1187 36.3067 28.078C35.8504 29.0374 35.1865 29.8801 34.3644 30.5434L13.4005 48.0834C11.8893 49.3255 10.0023 50.0022 8.05672 49.9999Z" fill="white"/>
</svg>
