<svg width="45" height="45" viewBox="0 0 45 45" fill="none" xmlns="http://www.w3.org/2000/svg">
<path d="M0 9.375C0 6.8886 0.98772 4.50403 2.74587 2.74587C4.50403 0.98772 6.8886 0 9.375 0H35.625C38.1114 0 40.496 0.98772 42.2541 2.74587C44.0123 4.50403 45 6.8886 45 9.375V35.625C45 38.1114 44.0123 40.496 42.2541 42.2541C40.496 44.0123 38.1114 45 35.625 45H9.375C6.8886 45 4.50403 44.0123 2.74587 42.2541C0.98772 40.496 0 38.1114 0 35.625V9.375ZM41.25 22.5V9.375C41.25 7.88316 40.6574 6.45242 39.6025 5.39752C38.5476 4.34263 37.1168 3.75 35.625 3.75H9.375C7.88316 3.75 6.45242 4.34263 5.39752 5.39752C4.34263 6.45242 3.75 7.88316 3.75 9.375V22.5H13.125C13.6223 22.5 14.0992 22.6975 14.4508 23.0492C14.8025 23.4008 15 23.8777 15 24.375C15 24.57 15.03 24.9825 15.12 25.53C15.2738 26.4562 15.5513 27.3787 15.975 28.2225C17.13 30.54 19.1362 31.875 22.5 31.875C25.8638 31.875 27.87 30.54 29.025 28.2225C29.4487 27.3787 29.7263 26.46 29.88 25.53C29.97 24.9825 30 24.57 30 24.375C29.9999 23.9362 30.1536 23.5112 30.4346 23.174C30.7155 22.8369 31.1058 22.609 31.5375 22.53L31.875 22.5H41.25Z" fill="white"/>
</svg>
