<svg width="30" height="25" viewBox="0 0 30 25" fill="none" xmlns="http://www.w3.org/2000/svg">
<g style="mix-blend-mode:luminosity">
<path d="M1.65318 4.13295C0 4.13295 0 5.78613 0 5.78613V23.1445C0 23.1445 0 24.7977 1.65318 24.7977H28.104C29.7572 24.7977 29.7572 23.1445 29.7572 23.1445V5.78613C29.7572 5.78613 29.7572 4.13295 28.104 4.13295H1.65318Z" fill="#5C913B"/>
<path d="M1.65318 0C0 0 0 1.65318 0 1.65318V18.185C0 18.185 0 19.8382 1.65318 19.8382H28.104C29.7572 19.8382 29.7572 18.185 29.7572 18.185V1.65318C29.7572 1.65318 29.7572 0 28.104 0H1.65318Z" fill="#A7D28B"/>
<path d="M20.6647 15.2919C23.632 15.2919 26.0375 12.8864 26.0375 9.91908C26.0375 6.95175 23.632 4.54625 20.6647 4.54625C17.6974 4.54625 15.2919 6.95175 15.2919 9.91908C15.2919 12.8864 17.6974 15.2919 20.6647 15.2919Z" fill="#77B255"/>
<path d="M27.2774 18.5983H2.47975C1.79616 18.5983 1.23987 18.042 1.23987 17.3584V2.47977C1.23987 1.79618 1.79616 1.23988 2.47975 1.23988H27.2774C27.961 1.23988 28.5173 1.79618 28.5173 2.47977V17.3584C28.5173 18.042 27.961 18.5983 27.2774 18.5983ZM2.47975 2.06647C2.37014 2.06647 2.26502 2.11002 2.18751 2.18752C2.11 2.26503 2.06646 2.37016 2.06646 2.47977V17.3584C2.06646 17.5857 2.25244 17.7717 2.47975 17.7717H27.2774C27.5048 17.7717 27.6907 17.5857 27.6907 17.3584V2.47977C27.6907 2.37016 27.6472 2.26503 27.5697 2.18752C27.4922 2.11002 27.3871 2.06647 27.2774 2.06647H2.47975Z" fill="#5C913B"/>
<path d="M11.5723 0H18.185V19.8894H11.5723V0Z" fill="#FFE8B6"/>
<path d="M11.5723 19.8381H18.185V24.7977H11.5723V19.8381Z" fill="#FFAC33"/>
<path d="M9.76199 11.5913C9.76199 9.12885 5.22153 9.28921 5.22153 7.80218C5.22153 7.08222 5.91008 6.73091 6.70857 6.73091C8.05178 6.73091 8.29066 7.59387 8.89903 7.59387C9.32969 7.59387 9.53716 7.32275 9.53716 7.01857C9.53716 6.31101 8.4659 5.77703 7.43845 5.59187V4.90994C7.43845 4.70562 7.35728 4.50967 7.21281 4.3652C7.06833 4.22072 6.87238 4.13956 6.66807 4.13956C6.46375 4.13956 6.2678 4.22072 6.12332 4.3652C5.97885 4.50967 5.89769 4.70562 5.89769 4.90994V5.61502C4.77848 5.87126 3.81385 6.64826 3.81385 7.91376C3.81385 10.2795 8.35431 10.1836 8.35431 11.8467C8.35431 12.4212 7.73106 12.9965 6.70774 12.9965C5.17277 12.9965 4.66111 11.9574 4.03869 11.9574C3.7345 11.9574 3.46338 12.2129 3.46338 12.598C3.46338 13.2106 4.48835 13.9462 5.89934 14.1529L5.89851 14.1562V14.9282C5.90769 15.1263 5.99287 15.3133 6.13634 15.4503C6.27981 15.5873 6.47054 15.6637 6.66889 15.6637C6.86725 15.6637 7.05798 15.5873 7.20145 15.4503C7.34492 15.3133 7.43009 15.1263 7.43927 14.9282V14.1562C7.43927 14.1479 7.43514 14.1405 7.43432 14.133C8.70313 13.8958 9.76199 13.07 9.76199 11.5913Z" fill="#5C913B"/>
</g>
</svg>
