<svg width="32" height="33" viewBox="0 0 32 33" fill="none" xmlns="http://www.w3.org/2000/svg">
<path d="M15.5833 33C24.1898 33 31.1667 26.0231 31.1667 17.4166C31.1667 8.81021 24.1898 1.83331 15.5833 1.83331C6.9769 1.83331 0 8.81021 0 17.4166C0 26.0231 6.9769 33 15.5833 33Z" fill="#F4900C"/>
<path d="M15.5833 31.1667C24.1898 31.1667 31.1667 24.1898 31.1667 15.5833C31.1667 6.9769 24.1898 0 15.5833 0C6.9769 0 0 6.9769 0 15.5833C0 24.1898 6.9769 31.1667 15.5833 31.1667Z" fill="#FFCC4D"/>
<path d="M15.5833 29.3334C22.671 29.3334 28.4167 23.5877 28.4167 16.5C28.4167 9.41237 22.671 3.66669 15.5833 3.66669C8.49568 3.66669 2.75 9.41237 2.75 16.5C2.75 23.5877 8.49568 29.3334 15.5833 29.3334Z" fill="#FFE8B6"/>
<path d="M15.5833 28.4167C22.671 28.4167 28.4167 22.671 28.4167 15.5833C28.4167 8.49568 22.671 2.75 15.5833 2.75C8.49568 2.75 2.75 8.49568 2.75 15.5833C2.75 22.671 8.49568 28.4167 15.5833 28.4167Z" fill="#FFAC33"/>
<path d="M7.83105 9.95131C7.83105 9.45173 8.32147 9.2519 8.32147 9.2519L15.543 5.86023L22.8332 9.2519C22.8332 9.2519 23.3356 9.36373 23.3356 9.95498V10.5426H7.83105V9.95131Z" fill="#FFE8B6"/>
<path d="M22.8516 11.7663C22.8516 11.231 22.3887 10.7974 21.8185 10.7974H9.28493C8.71385 10.7974 8.31602 11.231 8.31602 11.7663C8.31602 12.1303 8.50302 12.4438 8.80093 12.6097V13.2202H10.7388V12.7353H12.6766V13.2202H14.6144V12.7353H16.5523V13.2202H18.4901V12.7353H20.4279V13.2202H22.3667V12.5849C22.6573 12.4126 22.8516 12.111 22.8516 11.7663ZM24.3045 22C24.3045 22.1928 24.2279 22.3777 24.0916 22.514C23.9553 22.6503 23.7704 22.7269 23.5776 22.7269H7.5891C7.39631 22.7269 7.21142 22.6503 7.07509 22.514C6.93877 22.3777 6.86218 22.1928 6.86218 22C6.86218 21.8072 6.93877 21.6223 7.07509 21.486C7.21142 21.3497 7.39631 21.2731 7.5891 21.2731H23.5785C23.9791 21.2731 24.3045 21.5985 24.3045 22Z" fill="#F4900C"/>
<path d="M23.3356 11.1833C23.3356 11.312 23.2845 11.4353 23.1936 11.5262C23.1027 11.6172 22.9793 11.6683 22.8507 11.6683H8.31513C8.19168 11.6607 8.07577 11.6063 7.99104 11.5162C7.90631 11.4261 7.85913 11.307 7.85913 11.1833C7.85913 11.0597 7.90631 10.9406 7.99104 10.8505C8.07577 10.7604 8.19168 10.706 8.31513 10.6984L22.8507 10.7012C22.9142 10.7009 22.9772 10.7132 23.0359 10.7373C23.0947 10.7614 23.1481 10.7969 23.1932 10.8417C23.2382 10.8865 23.274 10.9397 23.2984 10.9983C23.3229 11.057 23.3355 11.1198 23.3356 11.1833ZM10.2539 11.7462H20.9138V12.8333H10.2539V11.7462Z" fill="#F4900C"/>
<path d="M10.7378 19.0933C10.7378 19.6286 10.4482 20.0622 10.0916 20.0622H9.44532C9.08874 20.0622 8.79907 19.6286 8.79907 19.0933V11.7471C8.79907 11.2118 9.08874 10.7782 9.44532 10.7782H10.0916C10.4482 10.7782 10.7378 11.2118 10.7378 11.7471V19.0933ZM22.3667 19.0933C22.3667 19.6286 22.0779 20.0622 21.7204 20.0622H21.0742C20.7176 20.0622 20.4279 19.6286 20.4279 19.0933V11.7471C20.4279 11.2118 20.7167 10.7782 21.0742 10.7782H21.7204C22.077 10.7782 22.3667 11.2118 22.3667 11.7471V19.0933ZM14.6144 19.0933C14.6144 19.6286 14.3247 20.0622 13.9682 20.0622H13.3219C12.9653 20.0622 12.6757 19.6286 12.6757 19.0933V11.7471C12.6757 11.2118 12.9653 10.7782 13.3219 10.7782H13.9682C14.3247 10.7782 14.6144 11.2118 14.6144 11.7471V19.0933ZM18.4901 19.0933C18.4901 19.6286 18.2004 20.0622 17.8438 20.0622H17.1985C16.8419 20.0622 16.5522 19.6286 16.5522 19.0933V11.7471C16.5522 11.2118 16.8419 10.7782 17.1985 10.7782H17.8438C18.2004 10.7782 18.4901 11.2118 18.4901 11.7471V19.0933Z" fill="#FFD983"/>
<path d="M22.8515 19.5772C22.8515 20.1125 22.4179 20.5461 21.8826 20.5461H9.28483C9.02786 20.5461 8.78141 20.444 8.59971 20.2623C8.418 20.0806 8.31592 19.8342 8.31592 19.5772C8.31592 19.3202 8.418 19.0738 8.59971 18.8921C8.78141 18.7104 9.02786 18.6083 9.28483 18.6083H21.8826C22.417 18.6083 22.8515 19.0419 22.8515 19.5772Z" fill="#FFCC4D"/>
<path d="M23.8205 20.5462C23.8205 21.0815 23.3869 21.5151 22.8516 21.5151H8.31511C8.05814 21.5151 7.81169 21.413 7.62998 21.2313C7.44827 21.0496 7.34619 20.8032 7.34619 20.5462C7.34619 20.2892 7.44827 20.0428 7.62998 19.8611C7.81169 19.6794 8.05814 19.5773 8.31511 19.5773H22.8507C23.386 19.5773 23.8205 20.0109 23.8205 20.5462Z" fill="#FFD983"/>
<path d="M24.3045 21.2731C24.3045 21.4659 24.2279 21.6507 24.0916 21.7871C23.9553 21.9234 23.7704 22 23.5776 22H7.5891C7.49364 22 7.39911 21.9812 7.31092 21.9446C7.22273 21.9081 7.14259 21.8546 7.07509 21.7871C7.00759 21.7196 6.95405 21.6394 6.91752 21.5512C6.88099 21.463 6.86218 21.3685 6.86218 21.2731C6.86218 21.1776 6.88099 21.0831 6.91752 20.9949C6.95405 20.9067 7.00759 20.8266 7.07509 20.7591C7.14259 20.6916 7.22273 20.638 7.31092 20.6015C7.39911 20.5649 7.49364 20.5461 7.5891 20.5461H23.5785C23.9791 20.5461 24.3045 20.8716 24.3045 21.2731Z" fill="#FFD983"/>
<path d="M22.8515 11.2621C22.8515 10.7268 22.3886 10.2932 21.8184 10.2932H9.28483C8.71375 10.2932 8.31592 10.7268 8.31592 11.2621C8.31592 11.626 8.50292 11.9395 8.80083 12.1055V12.716H10.7387V12.231H12.6765V12.716H14.6143V12.231H16.5522V12.716H18.49V12.231H20.4278V12.716H22.3666V12.0807C22.6572 11.9084 22.8515 11.6068 22.8515 11.2621Z" fill="#FFCC4D"/>
<path d="M7.83105 10.5078C7.83105 10.0082 8.32147 9.80835 8.32147 9.80835L15.543 6.41669L22.8332 9.80835C22.8332 9.80835 23.3356 9.92019 23.3356 10.5114V10.7782H7.83105V10.5078Z" fill="#FFD983"/>
<path d="M15.5832 7.64771C15.5832 7.64771 10.5828 10.0045 10.0842 10.2171C9.58458 10.4289 9.75141 10.7772 10.0851 10.7772H21.0576C21.5727 10.7772 21.4508 10.384 21.042 10.1713C20.6332 9.95954 15.5832 7.64771 15.5832 7.64771Z" fill="#FFAC33"/>
<path d="M23.3356 10.7773C23.3356 10.9059 23.2845 11.0292 23.1936 11.1202C23.1027 11.2111 22.9793 11.2622 22.8507 11.2622H8.31513C8.19168 11.2546 8.07577 11.2002 7.99104 11.1101C7.90631 11.02 7.85913 10.901 7.85913 10.7773C7.85913 10.6536 7.90631 10.5346 7.99104 10.4445C8.07577 10.3543 8.19168 10.3 8.31513 10.2924L22.8507 10.2951C22.9142 10.2949 22.9772 10.3072 23.0359 10.3313C23.0947 10.3554 23.1481 10.3908 23.1932 10.4356C23.2382 10.4804 23.274 10.5336 23.2984 10.5923C23.3229 10.6509 23.3355 10.7138 23.3356 10.7773Z" fill="#FFD983"/>
</svg>
