<svg width="41" height="41" viewBox="0 0 41 41" fill="none" xmlns="http://www.w3.org/2000/svg">
<g filter="url(#filter0_b_86_30)">
<rect width="41" height="41" rx="20" fill="#A2A2A2" fill-opacity="0.2"/>
</g>
<path d="M28.5838 22.4223L21.5004 29.5795C21.2259 29.8613 20.8629 30 20.4999 30C20.1369 30 19.7747 29.8602 19.4985 29.5806L12.415 22.4234C11.8617 21.8642 11.8617 20.9584 12.415 20.3992C12.9684 19.8401 13.8649 19.8401 14.4183 20.3992L19.0832 25.1152V11.3912C19.0832 10.5999 19.7176 10 20.46 10C21.2025 10 21.9166 10.5999 21.9166 11.3912V25.1152L26.5828 20.4004C27.1362 19.8412 28.0327 19.8412 28.5861 20.4004C29.1395 20.9595 29.1372 21.8631 28.5838 22.4223V22.4223Z" fill="white"/>
<defs>
<filter id="filter0_b_86_30" x="-50" y="-50" width="141" height="141" filterUnits="userSpaceOnUse" color-interpolation-filters="sRGB">
<feFlood flood-opacity="0" result="BackgroundImageFix"/>
<feGaussianBlur in="BackgroundImage" stdDeviation="25"/>
<feComposite in2="SourceAlpha" operator="in" result="effect1_backgroundBlur_86_30"/>
<feBlend mode="normal" in="SourceGraphic" in2="effect1_backgroundBlur_86_30" result="shape"/>
</filter>
</defs>
</svg>
