<svg width="73" height="63" viewBox="0 0 73 63" fill="none" xmlns="http://www.w3.org/2000/svg">
<path d="M52 25.5H32.5L14 24.5L7 32.5L5.5 44L13 57L23.5 59.5L37.5 60.5L52 59L61 57L66.5 48L67 39.5L64 29L52 25.5Z" fill="white"/>
<path d="M24.3227 37C22.837 37 21.563 37.6658 20.5345 39.0252C19.5059 40.3846 19 42.0302 19 43.9898C19 45.9493 19.5227 47.627 20.5345 48.9718C21.5463 50.3166 22.8202 51 24.3227 51C25.7093 51 26.9131 50.3196 27.931 48.9748C28.949 47.63 29.4655 45.9698 29.4655 43.9927C29.4655 42.0156 28.9429 40.37 27.931 39.0282C26.9192 37.6863 25.7154 37 24.3227 37ZM49.8404 37C48.3714 37 47.0808 37.6658 46.0522 39.0252C45.0236 40.3846 44.5177 42.0302 44.5177 43.9898C44.5177 45.9493 45.0404 47.627 46.0522 48.9718C47.064 50.3166 48.3547 51 49.8404 51C51.2286 51 52.4309 50.3196 53.4655 48.9748C54.5002 47.63 55 45.9698 55 43.9927C55 42.0156 54.4773 40.37 53.4655 39.0282C52.4537 37.6863 51.2453 37 49.8404 37Z" fill="black"/>
<path d="M67.4277 17.7188C67.4109 17.7188 67.8672 15.3729 67.4763 11.287C67.1174 7.19805 66.2597 3.44531 64.8529 0C64.8529 0 64.1351 0.131755 62.7663 0.475529C61.3976 0.819303 59.1604 1.51442 56.102 2.90466C53.0877 4.29793 49.9107 6.15159 46.6029 8.40051C44.3536 7.7599 40.9971 7.43279 36.5 7.43279C32.2143 7.43279 28.8578 7.7599 26.3971 8.40051C19.1306 3.33022 13.0417 0.530048 8.13037 0C6.73019 3.44582 5.86129 7.21925 5.52367 11.3203C5.13281 15.4093 5.58906 17.7687 5.58906 17.7687C1.62881 22.0833 0 28.3015 0 33.4354C0 37.4062 0.114063 40.9985 0.994625 44.1878C1.90713 47.3545 3.06296 49.9426 4.43171 51.9326C5.84785 53.9449 7.58773 55.7107 9.58125 57.1589C11.6176 58.6854 13.4913 59.7849 15.187 60.4739C16.898 61.1948 18.837 61.7203 21.0529 62.0974C22.6951 62.4138 24.3547 62.6333 26.023 62.7547C26.023 62.7547 30.5855 63 36.5167 63C42.448 63 46.9938 62.7547 46.9938 62.7547C48.6619 62.6292 50.3214 62.4077 51.9638 62.0913C53.9683 61.7692 55.9302 61.2247 57.813 60.4679C59.5087 59.7622 61.3824 58.6794 63.44 57.1528C65.4327 55.7067 67.1677 53.9381 68.5729 51.9205C69.9416 49.9351 71.0974 47.3424 72.0099 44.1757C72.9224 41.0091 73 37.3896 73 33.4188C73 28.4484 71.3712 22.1484 67.4277 17.7188ZM56.7712 56.0443C52.2239 58.1932 45.5429 59.0625 36.6795 59.0625H36.3373C27.4723 59.0625 20.7913 58.2099 16.3277 56.0443C11.864 53.8786 9.59798 49.4641 9.59798 42.8037C9.59798 38.8177 10.9987 35.5859 13.7529 33.1113C14.9589 32.0513 16.425 31.3062 18.25 30.8639C20.075 30.4217 21.7373 30.4096 23.3007 30.4535C24.8337 30.5187 26.9841 30.814 29.7049 31.0275C32.4257 31.241 34.4788 31.5197 36.5167 31.5197C38.4223 31.5197 40.9484 31.1911 45.006 30.8639C49.0636 30.5368 52.0946 30.3718 54.0489 30.6989C56.0534 31.0275 57.7978 31.7166 59.2806 33.1113C62.1641 35.703 63.6089 38.9338 63.6149 42.8037C63.5982 49.4641 61.3002 53.8953 56.7712 56.0443Z" fill="black"/>
</svg>
