<svg width="20" height="20" viewBox="0 0 20 20" fill="none" xmlns="http://www.w3.org/2000/svg">
<path d="M10 -0.000183105C4.48 -0.000183105 0 4.47982 0 9.99982C0 15.5198 4.48 19.9998 10 19.9998C15.52 19.9998 20 15.5198 20 9.99982C20 4.47982 15.52 -0.000183105 10 -0.000183105ZM14 10.9998H11V13.9998C11 14.5498 10.55 14.9998 10 14.9998C9.45 14.9998 9 14.5498 9 13.9998V10.9998H6C5.45 10.9998 5 10.5498 5 9.99982C5 9.44982 5.45 8.99982 6 8.99982H9V5.99982C9 5.44982 9.45 4.99982 10 4.99982C10.55 4.99982 11 5.44982 11 5.99982V8.99982H14C14.55 8.99982 15 9.44982 15 9.99982C15 10.5498 14.55 10.9998 14 10.9998Z" fill="white" fill-opacity="0.2"/>
</svg>
