<svg width="60" height="60" viewBox="0 0 60 60" fill="none" xmlns="http://www.w3.org/2000/svg">
<path d="M24.29 7.71094C27.665 8.56641 30.3135 11.2148 31.1689 14.5898C31.251 14.918 31.6729 14.918 31.7549 14.5898C32.6104 11.2148 35.2588 8.56641 38.6338 7.71094C38.9619 7.62891 38.9619 7.20703 38.6338 7.125C35.2588 6.26953 32.6104 3.62109 31.7549 0.246094C31.6729 -0.0820313 31.251 -0.0820313 31.1689 0.246094C30.3135 3.62109 27.665 6.26953 24.29 7.125C23.9619 7.20703 23.9619 7.62891 24.29 7.71094Z" fill="#FFB636"/>
<path d="M0.430664 22.1016C6.38379 23.6133 11.0713 28.3008 12.583 34.2539C12.7236 34.8281 13.4619 34.8281 13.6143 34.2539C15.126 28.3008 19.8135 23.6133 25.7666 22.1016C26.3408 21.9609 26.3408 21.2227 25.7666 21.0703C19.8018 19.5703 15.1143 14.8828 13.6143 8.92969C13.4736 8.35547 12.7354 8.35547 12.583 8.92969C11.0713 14.8828 6.38379 19.5703 0.430664 21.082C-0.143555 21.2227 -0.143555 21.9609 0.430664 22.1016Z" fill="#FFD469"/>
<path d="M20.7393 41.1328C29.6455 43.3945 36.665 50.4023 38.915 59.3086C39.1377 60.1641 40.2393 60.1641 40.4502 59.3086C42.7119 50.4023 49.7197 43.3828 58.626 41.1328C59.4814 40.9102 59.4814 39.8086 58.626 39.5977C49.7197 37.3359 42.7002 30.3281 40.4502 21.4219C40.2275 20.5664 39.126 20.5664 38.915 21.4219C36.6533 30.3281 29.6455 37.3477 20.7393 39.5977C19.8838 39.8086 19.8838 40.9102 20.7393 41.1328Z" fill="#FFE1AB"/>
</svg>
