<svg width="30" height="30" viewBox="0 0 30 30" fill="none" xmlns="http://www.w3.org/2000/svg">
<path d="M14.8786 29.7572C23.0958 29.7572 29.7572 23.0958 29.7572 14.8786C29.7572 6.66138 23.0958 0 14.8786 0C6.66138 0 0 6.66138 0 14.8786C0 23.0958 6.66138 29.7572 14.8786 29.7572Z" fill="#DD2E44"/>
<path d="M14.8786 26.0376C21.0415 26.0376 26.0375 21.0415 26.0375 14.8786C26.0375 8.71569 21.0415 3.71965 14.8786 3.71965C8.71564 3.71965 3.7196 8.71569 3.7196 14.8786C3.7196 21.0415 8.71564 26.0376 14.8786 26.0376Z" fill="white"/>
<path d="M14.8786 23.1445C19.4437 23.1445 23.1445 19.4437 23.1445 14.8786C23.1445 10.3135 19.4437 6.61272 14.8786 6.61272C10.3134 6.61272 6.61267 10.3135 6.61267 14.8786C6.61267 19.4437 10.3134 23.1445 14.8786 23.1445Z" fill="#DD2E44"/>
<path d="M14.8786 19.8381C17.6177 19.8381 19.8381 17.6177 19.8381 14.8786C19.8381 12.1395 17.6177 9.91907 14.8786 9.91907C12.1395 9.91907 9.91907 12.1395 9.91907 14.8786C9.91907 17.6177 12.1395 19.8381 14.8786 19.8381Z" fill="white"/>
<path d="M14.8786 17.3584C16.2481 17.3584 17.3583 16.2482 17.3583 14.8786C17.3583 13.5091 16.2481 12.3988 14.8786 12.3988C13.509 12.3988 12.3988 13.5091 12.3988 14.8786C12.3988 16.2482 13.509 17.3584 14.8786 17.3584Z" fill="#DD2E44"/>
<path opacity="0.2" d="M15.077 15.1117L25.9417 24.8275C25.9417 24.8275 23.7537 27.618 19.4199 29.0505L14.5306 15.2258L15.077 15.1117Z" fill="black"/>
<path d="M15.1216 15.7052C14.9586 15.7057 14.7992 15.6578 14.6636 15.5675C14.5279 15.4772 14.4222 15.3486 14.3598 15.1981C14.2974 15.0475 14.2812 14.8819 14.3133 14.7221C14.3453 14.5623 14.4241 14.4157 14.5397 14.3008L15.005 13.8354C15.1593 13.6811 15.3685 13.5944 15.5867 13.5943C15.8048 13.5942 16.0141 13.6808 16.1685 13.835C16.3228 13.9893 16.4095 14.1985 16.4096 14.4167C16.4097 14.6348 16.3231 14.8441 16.1689 14.9985L15.7027 15.4638C15.6266 15.5405 15.5361 15.6014 15.4363 15.6428C15.3366 15.6842 15.2296 15.7054 15.1216 15.7052Z" fill="#FFAC33"/>
<path d="M19.8514 5.77042C19.5183 7.4889 19.8514 9.64795 19.8514 9.64795L25.6822 3.54111C25.9227 2.33925 25.2457 0.290959 24.2621 0.0380223C23.2785 -0.214914 20.8904 0.701774 19.8514 5.77042ZM23.9868 9.90585C22.2684 10.239 20.1093 9.90585 20.1093 9.90585L26.2162 4.07509C27.418 3.83455 29.4663 4.51153 29.7192 5.49517C29.9722 6.47881 29.0555 8.86683 23.9868 9.90585Z" fill="#55ACEE"/>
<path d="M27.1105 3.70726L17.5039 14.5372C17.2046 14.8365 16.121 15.2663 15.4291 14.5753C14.7381 13.8842 15.0828 12.856 15.382 12.5559L26.2979 2.8939C26.2979 2.8939 26.8567 2.36901 27.256 2.76826C27.6552 3.1675 27.1105 3.70726 27.1105 3.70726V3.70726Z" fill="#3A87C2"/>
</svg>
