<svg width="23" height="21" viewBox="0 0 23 21" fill="none" xmlns="http://www.w3.org/2000/svg">
<path d="M9.94061 1.18452C10.4697 0.111913 11.9993 0.111913 12.5283 1.18452L14.967 6.12591L20.4206 6.91794C21.6038 7.09029 22.0768 8.54449 21.2199 9.37901L17.2741 13.2253L18.2056 18.6573C18.4077 19.8358 17.1707 20.7344 16.1117 20.1781L11.2345 17.6136L6.35723 20.1781C5.29905 20.7344 4.0613 19.8358 4.26332 18.6573L5.19484 13.2253L1.2491 9.37901C0.392138 8.54449 0.864311 7.09029 2.04835 6.91794L7.50199 6.12591L9.94061 1.18452Z" fill="white"/>
<path d="M18.6827 5.49261C18.5324 5.34228 18.448 5.13841 18.448 4.92584C18.448 4.71327 18.5324 4.5094 18.6827 4.35907L21.0877 1.95412C21.1616 1.87755 21.2501 1.81648 21.3479 1.77446C21.4457 1.73245 21.5509 1.71034 21.6573 1.70941C21.7638 1.70849 21.8693 1.72877 21.9679 1.76908C22.0664 1.80939 22.1559 1.86891 22.2312 1.94418C22.3064 2.01945 22.366 2.10895 22.4063 2.20747C22.4466 2.30599 22.4669 2.41156 22.4659 2.518C22.465 2.62444 22.4429 2.72963 22.4009 2.82744C22.3589 2.92524 22.2978 3.0137 22.2212 3.08765L19.8163 5.49261C19.6659 5.64289 19.4621 5.72732 19.2495 5.72732C19.0369 5.72732 18.8331 5.64289 18.6827 5.49261ZM0.244735 16.3839C0.168169 16.4578 0.107097 16.5463 0.0650836 16.6441C0.0230698 16.7419 0.000955227 16.8471 3.02677e-05 16.9535C-0.000894691 17.0599 0.0193885 17.1655 0.0596963 17.264C0.100004 17.3625 0.159529 17.4521 0.234798 17.5273C0.310068 17.6026 0.399574 17.6621 0.498094 17.7024C0.596614 17.7427 0.702175 17.763 0.808618 17.7621C0.915061 17.7612 1.02025 17.7391 1.11806 17.697C1.21586 17.655 1.30432 17.594 1.37827 17.5174L3.78323 15.1124C3.85979 15.0385 3.92086 14.95 3.96288 14.8522C4.00489 14.7544 4.02701 14.6492 4.02793 14.5428C4.02886 14.4363 4.00857 14.3308 3.96827 14.2323C3.92796 14.1337 3.86843 14.0442 3.79316 13.969C3.71789 13.8937 3.62839 13.8342 3.52987 13.7939C3.43135 13.7535 3.32579 13.7333 3.21934 13.7342C3.1129 13.7351 3.00771 13.7572 2.9099 13.7992C2.8121 13.8413 2.72364 13.9023 2.64969 13.9789L0.244735 16.3839ZM0.244735 1.95412C0.395067 1.80383 0.598934 1.7194 0.811503 1.7194C1.02407 1.7194 1.22794 1.80383 1.37827 1.95412L3.78323 4.35907C3.92925 4.51026 4.01006 4.71276 4.00823 4.92295C4.0064 5.13315 3.92209 5.33421 3.77346 5.48284C3.62483 5.63148 3.42376 5.71578 3.21357 5.71761C3.00338 5.71944 2.80088 5.63864 2.64969 5.49261L0.244735 3.08765C0.0944483 2.93732 0.0100221 2.73345 0.0100221 2.52088C0.0100221 2.30831 0.0944483 2.10445 0.244735 1.95412ZM19.8163 13.9789C19.6651 13.8329 19.4626 13.7521 19.2524 13.7539C19.0422 13.7557 18.8411 13.84 18.6925 13.9887C18.5439 14.1373 18.4596 14.3384 18.4577 14.5485C18.4559 14.7587 18.5367 14.9612 18.6827 15.1124L21.0877 17.5174C21.1616 17.594 21.2501 17.655 21.3479 17.697C21.4457 17.7391 21.5509 17.7612 21.6573 17.7621C21.7638 17.763 21.8693 17.7427 21.9679 17.7024C22.0664 17.6621 22.1559 17.6026 22.2312 17.5273C22.3064 17.4521 22.366 17.3625 22.4063 17.264C22.4466 17.1655 22.4669 17.0599 22.4659 16.9535C22.465 16.8471 22.4429 16.7419 22.4009 16.6441C22.3589 16.5463 22.2978 16.4578 22.2212 16.3839L19.8163 13.9789Z" fill="white"/>
</svg>
